G04 #@! TF.GenerationSoftware,KiCad,Pcbnew,(5.1.5)-3*
G04 #@! TF.CreationDate,2020-04-06T13:37:37+02:00*
G04 #@! TF.ProjectId,Dekatron_breakout,44656b61-7472-46f6-9e5f-627265616b6f,rev?*
G04 #@! TF.SameCoordinates,Original*
G04 #@! TF.FileFunction,Copper,L1,Top*
G04 #@! TF.FilePolarity,Positive*
%FSLAX46Y46*%
G04 Gerber Fmt 4.6, Leading zero omitted, Abs format (unit mm)*
G04 Created by KiCad (PCBNEW (5.1.5)-3) date 2020-04-06 13:37:37*
%MOMM*%
%LPD*%
G04 APERTURE LIST*
%ADD10C,5.000000*%
%ADD11R,1.700000X1.700000*%
%ADD12O,1.700000X1.700000*%
%ADD13C,0.500000*%
G04 APERTURE END LIST*
D10*
X137749001Y-85324001D03*
X142474001Y-80599001D03*
X137749001Y-92224001D03*
X142474001Y-96949001D03*
X154099001Y-92224001D03*
X154099001Y-85324001D03*
X149374001Y-96949001D03*
X149374001Y-80599001D03*
D11*
X171450000Y-92710000D03*
D12*
X171450000Y-90170000D03*
X171450000Y-87630000D03*
X171450000Y-85090000D03*
X120650000Y-85090000D03*
X120650000Y-87630000D03*
X120650000Y-90170000D03*
D11*
X120650000Y-92710000D03*
D13*
X152909534Y-96949001D02*
X149374001Y-96949001D01*
X165860999Y-96949001D02*
X152909534Y-96949001D01*
X170100000Y-92710000D02*
X165860999Y-96949001D01*
X171450000Y-92710000D02*
X170100000Y-92710000D01*
X156153002Y-90170000D02*
X154099001Y-92224001D01*
X171450000Y-90170000D02*
X156153002Y-90170000D01*
X156405000Y-87630000D02*
X154099001Y-85324001D01*
X171450000Y-87630000D02*
X156405000Y-87630000D01*
X171450000Y-85090000D02*
X170180000Y-85090000D01*
X165689001Y-80599001D02*
X149374001Y-80599001D01*
X170180000Y-85090000D02*
X165689001Y-80599001D01*
X126343080Y-80599001D02*
X142474001Y-80599001D01*
X120650000Y-85090000D02*
X121852081Y-85090000D01*
X121852081Y-85090000D02*
X126343080Y-80599001D01*
X135443002Y-87630000D02*
X137749001Y-85324001D01*
X120650000Y-87630000D02*
X135443002Y-87630000D01*
X135695000Y-90170000D02*
X137749001Y-92224001D01*
X120650000Y-90170000D02*
X135695000Y-90170000D01*
X138938468Y-96949001D02*
X142474001Y-96949001D01*
X122000000Y-92710000D02*
X126239001Y-96949001D01*
X126239001Y-96949001D02*
X138938468Y-96949001D01*
X120650000Y-92710000D02*
X122000000Y-92710000D01*
M02*
