G04 #@! TF.GenerationSoftware,KiCad,Pcbnew,(5.1.5)-3*
G04 #@! TF.CreationDate,2020-04-06T13:37:37+02:00*
G04 #@! TF.ProjectId,Dekatron_breakout,44656b61-7472-46f6-9e5f-627265616b6f,rev?*
G04 #@! TF.SameCoordinates,Original*
G04 #@! TF.FileFunction,Legend,Top*
G04 #@! TF.FilePolarity,Positive*
%FSLAX46Y46*%
G04 Gerber Fmt 4.6, Leading zero omitted, Abs format (unit mm)*
G04 Created by KiCad (PCBNEW (5.1.5)-3) date 2020-04-06 13:37:37*
%MOMM*%
%LPD*%
G04 APERTURE LIST*
%ADD10C,0.150000*%
%ADD11C,0.256000*%
%ADD12C,0.120000*%
G04 APERTURE END LIST*
D10*
X117379761Y-84970952D02*
X117284523Y-84923333D01*
X117236904Y-84875714D01*
X117189285Y-84780476D01*
X117189285Y-84732857D01*
X117236904Y-84637619D01*
X117284523Y-84590000D01*
X117379761Y-84542380D01*
X117570238Y-84542380D01*
X117665476Y-84590000D01*
X117713095Y-84637619D01*
X117760714Y-84732857D01*
X117760714Y-84780476D01*
X117713095Y-84875714D01*
X117665476Y-84923333D01*
X117570238Y-84970952D01*
X117379761Y-84970952D01*
X117284523Y-85018571D01*
X117236904Y-85066190D01*
X117189285Y-85161428D01*
X117189285Y-85351904D01*
X117236904Y-85447142D01*
X117284523Y-85494761D01*
X117379761Y-85542380D01*
X117570238Y-85542380D01*
X117665476Y-85494761D01*
X117713095Y-85447142D01*
X117760714Y-85351904D01*
X117760714Y-85161428D01*
X117713095Y-85066190D01*
X117665476Y-85018571D01*
X117570238Y-84970952D01*
X117141666Y-87082380D02*
X117808333Y-87082380D01*
X117379761Y-88082380D01*
X117665476Y-89622380D02*
X117475000Y-89622380D01*
X117379761Y-89670000D01*
X117332142Y-89717619D01*
X117236904Y-89860476D01*
X117189285Y-90050952D01*
X117189285Y-90431904D01*
X117236904Y-90527142D01*
X117284523Y-90574761D01*
X117379761Y-90622380D01*
X117570238Y-90622380D01*
X117665476Y-90574761D01*
X117713095Y-90527142D01*
X117760714Y-90431904D01*
X117760714Y-90193809D01*
X117713095Y-90098571D01*
X117665476Y-90050952D01*
X117570238Y-90003333D01*
X117379761Y-90003333D01*
X117284523Y-90050952D01*
X117236904Y-90098571D01*
X117189285Y-90193809D01*
X117713095Y-92162380D02*
X117236904Y-92162380D01*
X117189285Y-92638571D01*
X117236904Y-92590952D01*
X117332142Y-92543333D01*
X117570238Y-92543333D01*
X117665476Y-92590952D01*
X117713095Y-92638571D01*
X117760714Y-92733809D01*
X117760714Y-92971904D01*
X117713095Y-93067142D01*
X117665476Y-93114761D01*
X117570238Y-93162380D01*
X117332142Y-93162380D01*
X117236904Y-93114761D01*
X117189285Y-93067142D01*
X174815476Y-92495714D02*
X174815476Y-93162380D01*
X174577380Y-92114761D02*
X174339285Y-92829047D01*
X174958333Y-92829047D01*
X174291666Y-89622380D02*
X174910714Y-89622380D01*
X174577380Y-90003333D01*
X174720238Y-90003333D01*
X174815476Y-90050952D01*
X174863095Y-90098571D01*
X174910714Y-90193809D01*
X174910714Y-90431904D01*
X174863095Y-90527142D01*
X174815476Y-90574761D01*
X174720238Y-90622380D01*
X174434523Y-90622380D01*
X174339285Y-90574761D01*
X174291666Y-90527142D01*
X174339285Y-87177619D02*
X174386904Y-87130000D01*
X174482142Y-87082380D01*
X174720238Y-87082380D01*
X174815476Y-87130000D01*
X174863095Y-87177619D01*
X174910714Y-87272857D01*
X174910714Y-87368095D01*
X174863095Y-87510952D01*
X174291666Y-88082380D01*
X174910714Y-88082380D01*
X174910714Y-85542380D02*
X174339285Y-85542380D01*
X174625000Y-85542380D02*
X174625000Y-84542380D01*
X174529761Y-84685238D01*
X174434523Y-84780476D01*
X174339285Y-84828095D01*
X122421190Y-71017380D02*
X122611666Y-71017380D01*
X122706904Y-71065000D01*
X122802142Y-71160238D01*
X122849761Y-71350714D01*
X122849761Y-71684047D01*
X122802142Y-71874523D01*
X122706904Y-71969761D01*
X122611666Y-72017380D01*
X122421190Y-72017380D01*
X122325952Y-71969761D01*
X122230714Y-71874523D01*
X122183095Y-71684047D01*
X122183095Y-71350714D01*
X122230714Y-71160238D01*
X122325952Y-71065000D01*
X122421190Y-71017380D01*
X123802142Y-71065000D02*
X123706904Y-71017380D01*
X123564047Y-71017380D01*
X123421190Y-71065000D01*
X123325952Y-71160238D01*
X123278333Y-71255476D01*
X123230714Y-71445952D01*
X123230714Y-71588809D01*
X123278333Y-71779285D01*
X123325952Y-71874523D01*
X123421190Y-71969761D01*
X123564047Y-72017380D01*
X123659285Y-72017380D01*
X123802142Y-71969761D01*
X123849761Y-71922142D01*
X123849761Y-71588809D01*
X123659285Y-71588809D01*
X124278333Y-71636428D02*
X125040238Y-71636428D01*
X125659285Y-71445952D02*
X125564047Y-71398333D01*
X125516428Y-71350714D01*
X125468809Y-71255476D01*
X125468809Y-71207857D01*
X125516428Y-71112619D01*
X125564047Y-71065000D01*
X125659285Y-71017380D01*
X125849761Y-71017380D01*
X125945000Y-71065000D01*
X125992619Y-71112619D01*
X126040238Y-71207857D01*
X126040238Y-71255476D01*
X125992619Y-71350714D01*
X125945000Y-71398333D01*
X125849761Y-71445952D01*
X125659285Y-71445952D01*
X125564047Y-71493571D01*
X125516428Y-71541190D01*
X125468809Y-71636428D01*
X125468809Y-71826904D01*
X125516428Y-71922142D01*
X125564047Y-71969761D01*
X125659285Y-72017380D01*
X125849761Y-72017380D01*
X125945000Y-71969761D01*
X125992619Y-71922142D01*
X126040238Y-71826904D01*
X126040238Y-71636428D01*
X125992619Y-71541190D01*
X125945000Y-71493571D01*
X125849761Y-71445952D01*
X127230714Y-72017380D02*
X127230714Y-71017380D01*
X127468809Y-71017380D01*
X127611666Y-71065000D01*
X127706904Y-71160238D01*
X127754523Y-71255476D01*
X127802142Y-71445952D01*
X127802142Y-71588809D01*
X127754523Y-71779285D01*
X127706904Y-71874523D01*
X127611666Y-71969761D01*
X127468809Y-72017380D01*
X127230714Y-72017380D01*
X128611666Y-71969761D02*
X128516428Y-72017380D01*
X128325952Y-72017380D01*
X128230714Y-71969761D01*
X128183095Y-71874523D01*
X128183095Y-71493571D01*
X128230714Y-71398333D01*
X128325952Y-71350714D01*
X128516428Y-71350714D01*
X128611666Y-71398333D01*
X128659285Y-71493571D01*
X128659285Y-71588809D01*
X128183095Y-71684047D01*
X129087857Y-72017380D02*
X129087857Y-71017380D01*
X129183095Y-71636428D02*
X129468809Y-72017380D01*
X129468809Y-71350714D02*
X129087857Y-71731666D01*
X130325952Y-72017380D02*
X130325952Y-71493571D01*
X130278333Y-71398333D01*
X130183095Y-71350714D01*
X129992619Y-71350714D01*
X129897380Y-71398333D01*
X130325952Y-71969761D02*
X130230714Y-72017380D01*
X129992619Y-72017380D01*
X129897380Y-71969761D01*
X129849761Y-71874523D01*
X129849761Y-71779285D01*
X129897380Y-71684047D01*
X129992619Y-71636428D01*
X130230714Y-71636428D01*
X130325952Y-71588809D01*
X130659285Y-71350714D02*
X131040238Y-71350714D01*
X130802142Y-71017380D02*
X130802142Y-71874523D01*
X130849761Y-71969761D01*
X130945000Y-72017380D01*
X131040238Y-72017380D01*
X131373571Y-72017380D02*
X131373571Y-71350714D01*
X131373571Y-71541190D02*
X131421190Y-71445952D01*
X131468809Y-71398333D01*
X131564047Y-71350714D01*
X131659285Y-71350714D01*
X132135476Y-72017380D02*
X132040238Y-71969761D01*
X131992619Y-71922142D01*
X131945000Y-71826904D01*
X131945000Y-71541190D01*
X131992619Y-71445952D01*
X132040238Y-71398333D01*
X132135476Y-71350714D01*
X132278333Y-71350714D01*
X132373571Y-71398333D01*
X132421190Y-71445952D01*
X132468809Y-71541190D01*
X132468809Y-71826904D01*
X132421190Y-71922142D01*
X132373571Y-71969761D01*
X132278333Y-72017380D01*
X132135476Y-72017380D01*
X132897380Y-71350714D02*
X132897380Y-72017380D01*
X132897380Y-71445952D02*
X132945000Y-71398333D01*
X133040238Y-71350714D01*
X133183095Y-71350714D01*
X133278333Y-71398333D01*
X133325952Y-71493571D01*
X133325952Y-72017380D01*
X134897380Y-71493571D02*
X135040238Y-71541190D01*
X135087857Y-71588809D01*
X135135476Y-71684047D01*
X135135476Y-71826904D01*
X135087857Y-71922142D01*
X135040238Y-71969761D01*
X134945000Y-72017380D01*
X134564047Y-72017380D01*
X134564047Y-71017380D01*
X134897380Y-71017380D01*
X134992619Y-71065000D01*
X135040238Y-71112619D01*
X135087857Y-71207857D01*
X135087857Y-71303095D01*
X135040238Y-71398333D01*
X134992619Y-71445952D01*
X134897380Y-71493571D01*
X134564047Y-71493571D01*
X135564047Y-72017380D02*
X135564047Y-71350714D01*
X135564047Y-71541190D02*
X135611666Y-71445952D01*
X135659285Y-71398333D01*
X135754523Y-71350714D01*
X135849761Y-71350714D01*
X136564047Y-71969761D02*
X136468809Y-72017380D01*
X136278333Y-72017380D01*
X136183095Y-71969761D01*
X136135476Y-71874523D01*
X136135476Y-71493571D01*
X136183095Y-71398333D01*
X136278333Y-71350714D01*
X136468809Y-71350714D01*
X136564047Y-71398333D01*
X136611666Y-71493571D01*
X136611666Y-71588809D01*
X136135476Y-71684047D01*
X137468809Y-72017380D02*
X137468809Y-71493571D01*
X137421190Y-71398333D01*
X137325952Y-71350714D01*
X137135476Y-71350714D01*
X137040238Y-71398333D01*
X137468809Y-71969761D02*
X137373571Y-72017380D01*
X137135476Y-72017380D01*
X137040238Y-71969761D01*
X136992619Y-71874523D01*
X136992619Y-71779285D01*
X137040238Y-71684047D01*
X137135476Y-71636428D01*
X137373571Y-71636428D01*
X137468809Y-71588809D01*
X137945000Y-72017380D02*
X137945000Y-71017380D01*
X138040238Y-71636428D02*
X138325952Y-72017380D01*
X138325952Y-71350714D02*
X137945000Y-71731666D01*
X138897380Y-72017380D02*
X138802142Y-71969761D01*
X138754523Y-71922142D01*
X138706904Y-71826904D01*
X138706904Y-71541190D01*
X138754523Y-71445952D01*
X138802142Y-71398333D01*
X138897380Y-71350714D01*
X139040238Y-71350714D01*
X139135476Y-71398333D01*
X139183095Y-71445952D01*
X139230714Y-71541190D01*
X139230714Y-71826904D01*
X139183095Y-71922142D01*
X139135476Y-71969761D01*
X139040238Y-72017380D01*
X138897380Y-72017380D01*
X140087857Y-71350714D02*
X140087857Y-72017380D01*
X139659285Y-71350714D02*
X139659285Y-71874523D01*
X139706904Y-71969761D01*
X139802142Y-72017380D01*
X139945000Y-72017380D01*
X140040238Y-71969761D01*
X140087857Y-71922142D01*
X140421190Y-71350714D02*
X140802142Y-71350714D01*
X140564047Y-71017380D02*
X140564047Y-71874523D01*
X140611666Y-71969761D01*
X140706904Y-72017380D01*
X140802142Y-72017380D01*
X130016428Y-73000714D02*
X130254523Y-73667380D01*
X130492619Y-73000714D01*
X131397380Y-73667380D02*
X130825952Y-73667380D01*
X131111666Y-73667380D02*
X131111666Y-72667380D01*
X131016428Y-72810238D01*
X130921190Y-72905476D01*
X130825952Y-72953095D01*
X131825952Y-73572142D02*
X131873571Y-73619761D01*
X131825952Y-73667380D01*
X131778333Y-73619761D01*
X131825952Y-73572142D01*
X131825952Y-73667380D01*
X132492619Y-72667380D02*
X132587857Y-72667380D01*
X132683095Y-72715000D01*
X132730714Y-72762619D01*
X132778333Y-72857857D01*
X132825952Y-73048333D01*
X132825952Y-73286428D01*
X132778333Y-73476904D01*
X132730714Y-73572142D01*
X132683095Y-73619761D01*
X132587857Y-73667380D01*
X132492619Y-73667380D01*
X132397380Y-73619761D01*
X132349761Y-73572142D01*
X132302142Y-73476904D01*
X132254523Y-73286428D01*
X132254523Y-73048333D01*
X132302142Y-72857857D01*
X132349761Y-72762619D01*
X132397380Y-72715000D01*
X132492619Y-72667380D01*
D11*
X162180001Y-88774001D02*
G75*
G03X162180001Y-88774001I-16256000J0D01*
G01*
D12*
X172780000Y-83760000D02*
X170120000Y-83760000D01*
X172780000Y-91440000D02*
X172780000Y-83760000D01*
X170120000Y-91440000D02*
X170120000Y-83760000D01*
X172780000Y-91440000D02*
X170120000Y-91440000D01*
X172780000Y-92710000D02*
X172780000Y-94040000D01*
X172780000Y-94040000D02*
X171450000Y-94040000D01*
X121980000Y-94040000D02*
X120650000Y-94040000D01*
X121980000Y-92710000D02*
X121980000Y-94040000D01*
X121980000Y-91440000D02*
X119320000Y-91440000D01*
X119320000Y-91440000D02*
X119320000Y-83760000D01*
X121980000Y-91440000D02*
X121980000Y-83760000D01*
X121980000Y-83760000D02*
X119320000Y-83760000D01*
D10*
X145162096Y-73494381D02*
X145162096Y-74303905D01*
X145209715Y-74399143D01*
X145257334Y-74446762D01*
X145352572Y-74494381D01*
X145543048Y-74494381D01*
X145638286Y-74446762D01*
X145685905Y-74399143D01*
X145733524Y-74303905D01*
X145733524Y-73494381D01*
X146733524Y-74494381D02*
X146162096Y-74494381D01*
X146447810Y-74494381D02*
X146447810Y-73494381D01*
X146352572Y-73637239D01*
X146257334Y-73732477D01*
X146162096Y-73780096D01*
X171116666Y-94492380D02*
X171116666Y-95206666D01*
X171069047Y-95349523D01*
X170973809Y-95444761D01*
X170830952Y-95492380D01*
X170735714Y-95492380D01*
X172116666Y-95492380D02*
X171545238Y-95492380D01*
X171830952Y-95492380D02*
X171830952Y-94492380D01*
X171735714Y-94635238D01*
X171640476Y-94730476D01*
X171545238Y-94778095D01*
X120316666Y-94492380D02*
X120316666Y-95206666D01*
X120269047Y-95349523D01*
X120173809Y-95444761D01*
X120030952Y-95492380D01*
X119935714Y-95492380D01*
X120745238Y-94587619D02*
X120792857Y-94540000D01*
X120888095Y-94492380D01*
X121126190Y-94492380D01*
X121221428Y-94540000D01*
X121269047Y-94587619D01*
X121316666Y-94682857D01*
X121316666Y-94778095D01*
X121269047Y-94920952D01*
X120697619Y-95492380D01*
X121316666Y-95492380D01*
M02*
