G04 #@! TF.GenerationSoftware,KiCad,Pcbnew,(5.1.5)-3*
G04 #@! TF.CreationDate,2020-04-06T13:37:37+02:00*
G04 #@! TF.ProjectId,Dekatron_breakout,44656b61-7472-46f6-9e5f-627265616b6f,rev?*
G04 #@! TF.SameCoordinates,Original*
G04 #@! TF.FileFunction,Soldermask,Top*
G04 #@! TF.FilePolarity,Negative*
%FSLAX46Y46*%
G04 Gerber Fmt 4.6, Leading zero omitted, Abs format (unit mm)*
G04 Created by KiCad (PCBNEW (5.1.5)-3) date 2020-04-06 13:37:37*
%MOMM*%
%LPD*%
G04 APERTURE LIST*
%ADD10C,0.100000*%
G04 APERTURE END LIST*
D10*
G36*
X174365256Y-102531298D02*
G01*
X174471579Y-102552447D01*
X174772042Y-102676903D01*
X175042451Y-102857585D01*
X175272415Y-103087549D01*
X175453097Y-103357958D01*
X175577553Y-103658421D01*
X175641000Y-103977391D01*
X175641000Y-104302609D01*
X175577553Y-104621579D01*
X175453097Y-104922042D01*
X175272415Y-105192451D01*
X175042451Y-105422415D01*
X174772042Y-105603097D01*
X174471579Y-105727553D01*
X174365256Y-105748702D01*
X174152611Y-105791000D01*
X173827389Y-105791000D01*
X173614744Y-105748702D01*
X173508421Y-105727553D01*
X173207958Y-105603097D01*
X172937549Y-105422415D01*
X172707585Y-105192451D01*
X172526903Y-104922042D01*
X172402447Y-104621579D01*
X172339000Y-104302609D01*
X172339000Y-103977391D01*
X172402447Y-103658421D01*
X172526903Y-103357958D01*
X172707585Y-103087549D01*
X172937549Y-102857585D01*
X173207958Y-102676903D01*
X173508421Y-102552447D01*
X173614744Y-102531298D01*
X173827389Y-102489000D01*
X174152611Y-102489000D01*
X174365256Y-102531298D01*
G37*
G36*
X118485256Y-102531298D02*
G01*
X118591579Y-102552447D01*
X118892042Y-102676903D01*
X119162451Y-102857585D01*
X119392415Y-103087549D01*
X119573097Y-103357958D01*
X119697553Y-103658421D01*
X119761000Y-103977391D01*
X119761000Y-104302609D01*
X119697553Y-104621579D01*
X119573097Y-104922042D01*
X119392415Y-105192451D01*
X119162451Y-105422415D01*
X118892042Y-105603097D01*
X118591579Y-105727553D01*
X118485256Y-105748702D01*
X118272611Y-105791000D01*
X117947389Y-105791000D01*
X117734744Y-105748702D01*
X117628421Y-105727553D01*
X117327958Y-105603097D01*
X117057549Y-105422415D01*
X116827585Y-105192451D01*
X116646903Y-104922042D01*
X116522447Y-104621579D01*
X116459000Y-104302609D01*
X116459000Y-103977391D01*
X116522447Y-103658421D01*
X116646903Y-103357958D01*
X116827585Y-103087549D01*
X117057549Y-102857585D01*
X117327958Y-102676903D01*
X117628421Y-102552447D01*
X117734744Y-102531298D01*
X117947389Y-102489000D01*
X118272611Y-102489000D01*
X118485256Y-102531298D01*
G37*
G36*
X143218099Y-94496034D02*
G01*
X143654911Y-94676967D01*
X143682353Y-94688334D01*
X144100169Y-94967510D01*
X144455492Y-95322833D01*
X144734668Y-95740649D01*
X144734669Y-95740651D01*
X144926968Y-96204903D01*
X145025001Y-96697748D01*
X145025001Y-97200254D01*
X144926968Y-97693099D01*
X144734669Y-98157351D01*
X144734668Y-98157353D01*
X144455492Y-98575169D01*
X144100169Y-98930492D01*
X143682353Y-99209668D01*
X143682352Y-99209669D01*
X143682351Y-99209669D01*
X143218099Y-99401968D01*
X142725254Y-99500001D01*
X142222748Y-99500001D01*
X141729903Y-99401968D01*
X141265651Y-99209669D01*
X141265650Y-99209669D01*
X141265649Y-99209668D01*
X140847833Y-98930492D01*
X140492510Y-98575169D01*
X140213334Y-98157353D01*
X140213333Y-98157351D01*
X140021034Y-97693099D01*
X139923001Y-97200254D01*
X139923001Y-96697748D01*
X140021034Y-96204903D01*
X140213333Y-95740651D01*
X140213334Y-95740649D01*
X140492510Y-95322833D01*
X140847833Y-94967510D01*
X141265649Y-94688334D01*
X141293091Y-94676967D01*
X141729903Y-94496034D01*
X142222748Y-94398001D01*
X142725254Y-94398001D01*
X143218099Y-94496034D01*
G37*
G36*
X150118099Y-94496034D02*
G01*
X150554911Y-94676967D01*
X150582353Y-94688334D01*
X151000169Y-94967510D01*
X151355492Y-95322833D01*
X151634668Y-95740649D01*
X151634669Y-95740651D01*
X151826968Y-96204903D01*
X151925001Y-96697748D01*
X151925001Y-97200254D01*
X151826968Y-97693099D01*
X151634669Y-98157351D01*
X151634668Y-98157353D01*
X151355492Y-98575169D01*
X151000169Y-98930492D01*
X150582353Y-99209668D01*
X150582352Y-99209669D01*
X150582351Y-99209669D01*
X150118099Y-99401968D01*
X149625254Y-99500001D01*
X149122748Y-99500001D01*
X148629903Y-99401968D01*
X148165651Y-99209669D01*
X148165650Y-99209669D01*
X148165649Y-99209668D01*
X147747833Y-98930492D01*
X147392510Y-98575169D01*
X147113334Y-98157353D01*
X147113333Y-98157351D01*
X146921034Y-97693099D01*
X146823001Y-97200254D01*
X146823001Y-96697748D01*
X146921034Y-96204903D01*
X147113333Y-95740651D01*
X147113334Y-95740649D01*
X147392510Y-95322833D01*
X147747833Y-94967510D01*
X148165649Y-94688334D01*
X148193091Y-94676967D01*
X148629903Y-94496034D01*
X149122748Y-94398001D01*
X149625254Y-94398001D01*
X150118099Y-94496034D01*
G37*
G36*
X154843099Y-89771034D02*
G01*
X155307351Y-89963333D01*
X155307353Y-89963334D01*
X155725169Y-90242510D01*
X156080492Y-90597833D01*
X156359668Y-91015649D01*
X156359669Y-91015651D01*
X156551968Y-91479903D01*
X156650001Y-91972748D01*
X156650001Y-92475254D01*
X156551968Y-92968099D01*
X156359669Y-93432351D01*
X156359668Y-93432353D01*
X156080492Y-93850169D01*
X155725169Y-94205492D01*
X155307353Y-94484668D01*
X155307352Y-94484669D01*
X155307351Y-94484669D01*
X154843099Y-94676968D01*
X154350254Y-94775001D01*
X153847748Y-94775001D01*
X153354903Y-94676968D01*
X152890651Y-94484669D01*
X152890650Y-94484669D01*
X152890649Y-94484668D01*
X152472833Y-94205492D01*
X152117510Y-93850169D01*
X151838334Y-93432353D01*
X151838333Y-93432351D01*
X151646034Y-92968099D01*
X151548001Y-92475254D01*
X151548001Y-91972748D01*
X151646034Y-91479903D01*
X151838333Y-91015651D01*
X151838334Y-91015649D01*
X152117510Y-90597833D01*
X152472833Y-90242510D01*
X152890649Y-89963334D01*
X152890651Y-89963333D01*
X153354903Y-89771034D01*
X153847748Y-89673001D01*
X154350254Y-89673001D01*
X154843099Y-89771034D01*
G37*
G36*
X138493099Y-89771034D02*
G01*
X138957351Y-89963333D01*
X138957353Y-89963334D01*
X139375169Y-90242510D01*
X139730492Y-90597833D01*
X140009668Y-91015649D01*
X140009669Y-91015651D01*
X140201968Y-91479903D01*
X140300001Y-91972748D01*
X140300001Y-92475254D01*
X140201968Y-92968099D01*
X140009669Y-93432351D01*
X140009668Y-93432353D01*
X139730492Y-93850169D01*
X139375169Y-94205492D01*
X138957353Y-94484668D01*
X138957352Y-94484669D01*
X138957351Y-94484669D01*
X138493099Y-94676968D01*
X138000254Y-94775001D01*
X137497748Y-94775001D01*
X137004903Y-94676968D01*
X136540651Y-94484669D01*
X136540650Y-94484669D01*
X136540649Y-94484668D01*
X136122833Y-94205492D01*
X135767510Y-93850169D01*
X135488334Y-93432353D01*
X135488333Y-93432351D01*
X135296034Y-92968099D01*
X135198001Y-92475254D01*
X135198001Y-91972748D01*
X135296034Y-91479903D01*
X135488333Y-91015651D01*
X135488334Y-91015649D01*
X135767510Y-90597833D01*
X136122833Y-90242510D01*
X136540649Y-89963334D01*
X136540651Y-89963333D01*
X137004903Y-89771034D01*
X137497748Y-89673001D01*
X138000254Y-89673001D01*
X138493099Y-89771034D01*
G37*
G36*
X172351000Y-93611000D02*
G01*
X170549000Y-93611000D01*
X170549000Y-91809000D01*
X172351000Y-91809000D01*
X172351000Y-93611000D01*
G37*
G36*
X121551000Y-93611000D02*
G01*
X119749000Y-93611000D01*
X119749000Y-91809000D01*
X121551000Y-91809000D01*
X121551000Y-93611000D01*
G37*
G36*
X120763512Y-89273927D02*
G01*
X120912812Y-89303624D01*
X121076784Y-89371544D01*
X121224354Y-89470147D01*
X121349853Y-89595646D01*
X121448456Y-89743216D01*
X121516376Y-89907188D01*
X121551000Y-90081259D01*
X121551000Y-90258741D01*
X121516376Y-90432812D01*
X121448456Y-90596784D01*
X121349853Y-90744354D01*
X121224354Y-90869853D01*
X121076784Y-90968456D01*
X120912812Y-91036376D01*
X120763512Y-91066073D01*
X120738742Y-91071000D01*
X120561258Y-91071000D01*
X120536488Y-91066073D01*
X120387188Y-91036376D01*
X120223216Y-90968456D01*
X120075646Y-90869853D01*
X119950147Y-90744354D01*
X119851544Y-90596784D01*
X119783624Y-90432812D01*
X119749000Y-90258741D01*
X119749000Y-90081259D01*
X119783624Y-89907188D01*
X119851544Y-89743216D01*
X119950147Y-89595646D01*
X120075646Y-89470147D01*
X120223216Y-89371544D01*
X120387188Y-89303624D01*
X120536488Y-89273927D01*
X120561258Y-89269000D01*
X120738742Y-89269000D01*
X120763512Y-89273927D01*
G37*
G36*
X171563512Y-89273927D02*
G01*
X171712812Y-89303624D01*
X171876784Y-89371544D01*
X172024354Y-89470147D01*
X172149853Y-89595646D01*
X172248456Y-89743216D01*
X172316376Y-89907188D01*
X172351000Y-90081259D01*
X172351000Y-90258741D01*
X172316376Y-90432812D01*
X172248456Y-90596784D01*
X172149853Y-90744354D01*
X172024354Y-90869853D01*
X171876784Y-90968456D01*
X171712812Y-91036376D01*
X171563512Y-91066073D01*
X171538742Y-91071000D01*
X171361258Y-91071000D01*
X171336488Y-91066073D01*
X171187188Y-91036376D01*
X171023216Y-90968456D01*
X170875646Y-90869853D01*
X170750147Y-90744354D01*
X170651544Y-90596784D01*
X170583624Y-90432812D01*
X170549000Y-90258741D01*
X170549000Y-90081259D01*
X170583624Y-89907188D01*
X170651544Y-89743216D01*
X170750147Y-89595646D01*
X170875646Y-89470147D01*
X171023216Y-89371544D01*
X171187188Y-89303624D01*
X171336488Y-89273927D01*
X171361258Y-89269000D01*
X171538742Y-89269000D01*
X171563512Y-89273927D01*
G37*
G36*
X120763512Y-86733927D02*
G01*
X120912812Y-86763624D01*
X121076784Y-86831544D01*
X121224354Y-86930147D01*
X121349853Y-87055646D01*
X121448456Y-87203216D01*
X121516376Y-87367188D01*
X121551000Y-87541259D01*
X121551000Y-87718741D01*
X121516376Y-87892812D01*
X121448456Y-88056784D01*
X121349853Y-88204354D01*
X121224354Y-88329853D01*
X121076784Y-88428456D01*
X120912812Y-88496376D01*
X120763512Y-88526073D01*
X120738742Y-88531000D01*
X120561258Y-88531000D01*
X120536488Y-88526073D01*
X120387188Y-88496376D01*
X120223216Y-88428456D01*
X120075646Y-88329853D01*
X119950147Y-88204354D01*
X119851544Y-88056784D01*
X119783624Y-87892812D01*
X119749000Y-87718741D01*
X119749000Y-87541259D01*
X119783624Y-87367188D01*
X119851544Y-87203216D01*
X119950147Y-87055646D01*
X120075646Y-86930147D01*
X120223216Y-86831544D01*
X120387188Y-86763624D01*
X120536488Y-86733927D01*
X120561258Y-86729000D01*
X120738742Y-86729000D01*
X120763512Y-86733927D01*
G37*
G36*
X171563512Y-86733927D02*
G01*
X171712812Y-86763624D01*
X171876784Y-86831544D01*
X172024354Y-86930147D01*
X172149853Y-87055646D01*
X172248456Y-87203216D01*
X172316376Y-87367188D01*
X172351000Y-87541259D01*
X172351000Y-87718741D01*
X172316376Y-87892812D01*
X172248456Y-88056784D01*
X172149853Y-88204354D01*
X172024354Y-88329853D01*
X171876784Y-88428456D01*
X171712812Y-88496376D01*
X171563512Y-88526073D01*
X171538742Y-88531000D01*
X171361258Y-88531000D01*
X171336488Y-88526073D01*
X171187188Y-88496376D01*
X171023216Y-88428456D01*
X170875646Y-88329853D01*
X170750147Y-88204354D01*
X170651544Y-88056784D01*
X170583624Y-87892812D01*
X170549000Y-87718741D01*
X170549000Y-87541259D01*
X170583624Y-87367188D01*
X170651544Y-87203216D01*
X170750147Y-87055646D01*
X170875646Y-86930147D01*
X171023216Y-86831544D01*
X171187188Y-86763624D01*
X171336488Y-86733927D01*
X171361258Y-86729000D01*
X171538742Y-86729000D01*
X171563512Y-86733927D01*
G37*
G36*
X154843099Y-82871034D02*
G01*
X155279911Y-83051967D01*
X155307353Y-83063334D01*
X155725169Y-83342510D01*
X156080492Y-83697833D01*
X156359668Y-84115649D01*
X156359669Y-84115651D01*
X156551968Y-84579903D01*
X156650001Y-85072748D01*
X156650001Y-85575254D01*
X156551968Y-86068099D01*
X156359669Y-86532351D01*
X156359668Y-86532353D01*
X156080492Y-86950169D01*
X155725169Y-87305492D01*
X155307353Y-87584668D01*
X155307352Y-87584669D01*
X155307351Y-87584669D01*
X154843099Y-87776968D01*
X154350254Y-87875001D01*
X153847748Y-87875001D01*
X153354903Y-87776968D01*
X152890651Y-87584669D01*
X152890650Y-87584669D01*
X152890649Y-87584668D01*
X152472833Y-87305492D01*
X152117510Y-86950169D01*
X151838334Y-86532353D01*
X151838333Y-86532351D01*
X151646034Y-86068099D01*
X151548001Y-85575254D01*
X151548001Y-85072748D01*
X151646034Y-84579903D01*
X151838333Y-84115651D01*
X151838334Y-84115649D01*
X152117510Y-83697833D01*
X152472833Y-83342510D01*
X152890649Y-83063334D01*
X152918091Y-83051967D01*
X153354903Y-82871034D01*
X153847748Y-82773001D01*
X154350254Y-82773001D01*
X154843099Y-82871034D01*
G37*
G36*
X138493099Y-82871034D02*
G01*
X138929911Y-83051967D01*
X138957353Y-83063334D01*
X139375169Y-83342510D01*
X139730492Y-83697833D01*
X140009668Y-84115649D01*
X140009669Y-84115651D01*
X140201968Y-84579903D01*
X140300001Y-85072748D01*
X140300001Y-85575254D01*
X140201968Y-86068099D01*
X140009669Y-86532351D01*
X140009668Y-86532353D01*
X139730492Y-86950169D01*
X139375169Y-87305492D01*
X138957353Y-87584668D01*
X138957352Y-87584669D01*
X138957351Y-87584669D01*
X138493099Y-87776968D01*
X138000254Y-87875001D01*
X137497748Y-87875001D01*
X137004903Y-87776968D01*
X136540651Y-87584669D01*
X136540650Y-87584669D01*
X136540649Y-87584668D01*
X136122833Y-87305492D01*
X135767510Y-86950169D01*
X135488334Y-86532353D01*
X135488333Y-86532351D01*
X135296034Y-86068099D01*
X135198001Y-85575254D01*
X135198001Y-85072748D01*
X135296034Y-84579903D01*
X135488333Y-84115651D01*
X135488334Y-84115649D01*
X135767510Y-83697833D01*
X136122833Y-83342510D01*
X136540649Y-83063334D01*
X136568091Y-83051967D01*
X137004903Y-82871034D01*
X137497748Y-82773001D01*
X138000254Y-82773001D01*
X138493099Y-82871034D01*
G37*
G36*
X171563512Y-84193927D02*
G01*
X171712812Y-84223624D01*
X171876784Y-84291544D01*
X172024354Y-84390147D01*
X172149853Y-84515646D01*
X172248456Y-84663216D01*
X172316376Y-84827188D01*
X172351000Y-85001259D01*
X172351000Y-85178741D01*
X172316376Y-85352812D01*
X172248456Y-85516784D01*
X172149853Y-85664354D01*
X172024354Y-85789853D01*
X171876784Y-85888456D01*
X171712812Y-85956376D01*
X171563512Y-85986073D01*
X171538742Y-85991000D01*
X171361258Y-85991000D01*
X171336488Y-85986073D01*
X171187188Y-85956376D01*
X171023216Y-85888456D01*
X170875646Y-85789853D01*
X170750147Y-85664354D01*
X170651544Y-85516784D01*
X170583624Y-85352812D01*
X170549000Y-85178741D01*
X170549000Y-85001259D01*
X170583624Y-84827188D01*
X170651544Y-84663216D01*
X170750147Y-84515646D01*
X170875646Y-84390147D01*
X171023216Y-84291544D01*
X171187188Y-84223624D01*
X171336488Y-84193927D01*
X171361258Y-84189000D01*
X171538742Y-84189000D01*
X171563512Y-84193927D01*
G37*
G36*
X120763512Y-84193927D02*
G01*
X120912812Y-84223624D01*
X121076784Y-84291544D01*
X121224354Y-84390147D01*
X121349853Y-84515646D01*
X121448456Y-84663216D01*
X121516376Y-84827188D01*
X121551000Y-85001259D01*
X121551000Y-85178741D01*
X121516376Y-85352812D01*
X121448456Y-85516784D01*
X121349853Y-85664354D01*
X121224354Y-85789853D01*
X121076784Y-85888456D01*
X120912812Y-85956376D01*
X120763512Y-85986073D01*
X120738742Y-85991000D01*
X120561258Y-85991000D01*
X120536488Y-85986073D01*
X120387188Y-85956376D01*
X120223216Y-85888456D01*
X120075646Y-85789853D01*
X119950147Y-85664354D01*
X119851544Y-85516784D01*
X119783624Y-85352812D01*
X119749000Y-85178741D01*
X119749000Y-85001259D01*
X119783624Y-84827188D01*
X119851544Y-84663216D01*
X119950147Y-84515646D01*
X120075646Y-84390147D01*
X120223216Y-84291544D01*
X120387188Y-84223624D01*
X120536488Y-84193927D01*
X120561258Y-84189000D01*
X120738742Y-84189000D01*
X120763512Y-84193927D01*
G37*
G36*
X143218099Y-78146034D02*
G01*
X143682351Y-78338333D01*
X143682353Y-78338334D01*
X144100169Y-78617510D01*
X144455492Y-78972833D01*
X144734668Y-79390649D01*
X144734669Y-79390651D01*
X144926968Y-79854903D01*
X145025001Y-80347748D01*
X145025001Y-80850254D01*
X144926968Y-81343099D01*
X144734669Y-81807351D01*
X144734668Y-81807353D01*
X144455492Y-82225169D01*
X144100169Y-82580492D01*
X143682353Y-82859668D01*
X143682352Y-82859669D01*
X143682351Y-82859669D01*
X143218099Y-83051968D01*
X142725254Y-83150001D01*
X142222748Y-83150001D01*
X141729903Y-83051968D01*
X141265651Y-82859669D01*
X141265650Y-82859669D01*
X141265649Y-82859668D01*
X140847833Y-82580492D01*
X140492510Y-82225169D01*
X140213334Y-81807353D01*
X140213333Y-81807351D01*
X140021034Y-81343099D01*
X139923001Y-80850254D01*
X139923001Y-80347748D01*
X140021034Y-79854903D01*
X140213333Y-79390651D01*
X140213334Y-79390649D01*
X140492510Y-78972833D01*
X140847833Y-78617510D01*
X141265649Y-78338334D01*
X141265651Y-78338333D01*
X141729903Y-78146034D01*
X142222748Y-78048001D01*
X142725254Y-78048001D01*
X143218099Y-78146034D01*
G37*
G36*
X150118099Y-78146034D02*
G01*
X150582351Y-78338333D01*
X150582353Y-78338334D01*
X151000169Y-78617510D01*
X151355492Y-78972833D01*
X151634668Y-79390649D01*
X151634669Y-79390651D01*
X151826968Y-79854903D01*
X151925001Y-80347748D01*
X151925001Y-80850254D01*
X151826968Y-81343099D01*
X151634669Y-81807351D01*
X151634668Y-81807353D01*
X151355492Y-82225169D01*
X151000169Y-82580492D01*
X150582353Y-82859668D01*
X150582352Y-82859669D01*
X150582351Y-82859669D01*
X150118099Y-83051968D01*
X149625254Y-83150001D01*
X149122748Y-83150001D01*
X148629903Y-83051968D01*
X148165651Y-82859669D01*
X148165650Y-82859669D01*
X148165649Y-82859668D01*
X147747833Y-82580492D01*
X147392510Y-82225169D01*
X147113334Y-81807353D01*
X147113333Y-81807351D01*
X146921034Y-81343099D01*
X146823001Y-80850254D01*
X146823001Y-80347748D01*
X146921034Y-79854903D01*
X147113333Y-79390651D01*
X147113334Y-79390649D01*
X147392510Y-78972833D01*
X147747833Y-78617510D01*
X148165649Y-78338334D01*
X148165651Y-78338333D01*
X148629903Y-78146034D01*
X149122748Y-78048001D01*
X149625254Y-78048001D01*
X150118099Y-78146034D01*
G37*
G36*
X118485256Y-72051298D02*
G01*
X118591579Y-72072447D01*
X118892042Y-72196903D01*
X119162451Y-72377585D01*
X119392415Y-72607549D01*
X119573097Y-72877958D01*
X119697553Y-73178421D01*
X119761000Y-73497391D01*
X119761000Y-73822609D01*
X119697553Y-74141579D01*
X119573097Y-74442042D01*
X119392415Y-74712451D01*
X119162451Y-74942415D01*
X118892042Y-75123097D01*
X118591579Y-75247553D01*
X118485256Y-75268702D01*
X118272611Y-75311000D01*
X117947389Y-75311000D01*
X117734744Y-75268702D01*
X117628421Y-75247553D01*
X117327958Y-75123097D01*
X117057549Y-74942415D01*
X116827585Y-74712451D01*
X116646903Y-74442042D01*
X116522447Y-74141579D01*
X116459000Y-73822609D01*
X116459000Y-73497391D01*
X116522447Y-73178421D01*
X116646903Y-72877958D01*
X116827585Y-72607549D01*
X117057549Y-72377585D01*
X117327958Y-72196903D01*
X117628421Y-72072447D01*
X117734744Y-72051298D01*
X117947389Y-72009000D01*
X118272611Y-72009000D01*
X118485256Y-72051298D01*
G37*
G36*
X174365256Y-72051298D02*
G01*
X174471579Y-72072447D01*
X174772042Y-72196903D01*
X175042451Y-72377585D01*
X175272415Y-72607549D01*
X175453097Y-72877958D01*
X175577553Y-73178421D01*
X175641000Y-73497391D01*
X175641000Y-73822609D01*
X175577553Y-74141579D01*
X175453097Y-74442042D01*
X175272415Y-74712451D01*
X175042451Y-74942415D01*
X174772042Y-75123097D01*
X174471579Y-75247553D01*
X174365256Y-75268702D01*
X174152611Y-75311000D01*
X173827389Y-75311000D01*
X173614744Y-75268702D01*
X173508421Y-75247553D01*
X173207958Y-75123097D01*
X172937549Y-74942415D01*
X172707585Y-74712451D01*
X172526903Y-74442042D01*
X172402447Y-74141579D01*
X172339000Y-73822609D01*
X172339000Y-73497391D01*
X172402447Y-73178421D01*
X172526903Y-72877958D01*
X172707585Y-72607549D01*
X172937549Y-72377585D01*
X173207958Y-72196903D01*
X173508421Y-72072447D01*
X173614744Y-72051298D01*
X173827389Y-72009000D01*
X174152611Y-72009000D01*
X174365256Y-72051298D01*
G37*
M02*
